<?xml version="1.0" standalone="no"?>

<!DOCTYPE svg PUBLIC "-//W3C//DTD SVG 20010904//EN"

 "http://www.w3.org/TR/2001/REC-SVG-20010904/DTD/svg10.dtd">

<svg version="1.0" xmlns="http://www.w3.org/2000/svg"

 width="315.000000pt" height="188.000000pt" viewBox="0 0 315.000000 188.000000"

 preserveAspectRatio="xMidYMid meet">

<path fill="#212221" stroke="none" d="
M71 159

C65 158 55 153 49 148

C47 147 43 142 41 139

C23 111 37 74 69 66

C76 64 90 65 97 68

C106 71 115 78 120 87

C123 90 130 103 136 114

C149 136 154 142 163 147

C169 150 170 151 180 151

C190 151 191 150 197 147

C205 144 212 137 215 129

C217 126 218 124 219 124

C220 124 221 126 222 128

C224 132 224 132 221 137

C217 143 208 152 201 155

C184 163 166 161 151 150

C143 144 139 138 122 107

C111 86 107 82 96 77

C90 74 88 74 81 74

C68 74 62 76 53 85

C44 94 42 100 42 113

C42 121 42 122 45 129

C50 138 55 144 64 148

C69 150 71 151 80 151

C89 151 91 150 97 148

C104 144 113 136 116 129

L118 124

L119 124

C119 124 121 128 124 132

C128 140 128 140 128 150

L128 160

L124 160

L120 160

L120 151

L120 141

L119 141

C119 141 116 143 113 146

C106 153 96 158 88 159

C80 160 78 160 71 159

Z

M248 154

C247 153 242 144 237 134

C213 88 208 82 197 77

C178 68 155 76 146 94

C144 97 142 100 142 100

C142 100 140 98 139 97

C137 93 137 93 139 89

C144 79 154 71 166 67

C171 65 174 65 183 65

C192 66 193 66 200 69

C204 71 210 75 213 78

C216 81 219 83 219 83

L220 83

L220 61

L220 39

L222 39

C223 38 225 38 226 39

L228 39

L228 69

C228 100 228 100 241 123

C248 136 254 146 254 146

L255 146

L271 104

L286 62

L291 62

L295 62

L295 63

C295 64 261 152 260 155

C259 157 258 157 255 157

C251 157 250 157 248 154

Z

"/>

<path fill="#2c2c2c" stroke="none" d="
"/>

<path fill="#f1f1f0" stroke="none" d="
"/>

<path fill="#f4f4f3" stroke="none" d="
"/>

<path fill="#faf9f8" stroke="none" d="
M118 142

L119 142

L120 142

L120 143

L118 143

L117 143

L118 142

Z

"/>

<path fill="#fbfbfa" stroke="none" d="
"/>

<path fill="#fcfcfb" stroke="none" d="
"/>

<path fill="#fefefd" stroke="none" d="
"/>

<path fill="#fffffe" stroke="none" d="
"/>

<path fill="#fffffe" stroke="none" d="
"/>

<path fill="#fffffe" stroke="none" d="
"/>

<path fill="#fffffe" stroke="none" d="
"/>

<path fill="#fffffe" stroke="none" d="
"/>

<path fill="#fffffe" stroke="none" d="
"/>

<path fill="#fffffe" stroke="none" d="
"/>

<path fill="#fffffe" stroke="none" d="
"/>

<path fill="#fffffe" stroke="none" d="
"/>

<path fill="#fffffe" stroke="none" d="
"/>

<path fill="#fffffe" stroke="none" d="
"/>

<path fill="#fffffe" stroke="none" d="
"/>

<path fill="#fffffe" stroke="none" d="
"/>

<path fill="#fffffe" stroke="none" d="
"/>

<path fill="#fffffe" stroke="none" d="
"/>

<path fill="#fffffe" stroke="none" d="
"/>

<path fill="#fffffe" stroke="none" d="
"/>

<path fill="#fffffe" stroke="none" d="
"/>

<path fill="#fffffe" stroke="none" d="
"/>

<path fill="#fffffe" stroke="none" d="
"/>

<path fill="#fffffe" stroke="none" d="
"/>

<path fill="#fffffe" stroke="none" d="
"/>

<path fill="#fffffe" stroke="none" d="
"/>

<path fill="#fffffe" stroke="none" d="
"/>

<path fill="#fffffe" stroke="none" d="
"/>

<path fill="#fffffe" stroke="none" d="
"/>

<path fill="#fffffe" stroke="none" d="
"/>

<path fill="#fffffe" stroke="none" d="
"/>

<path fill="#fffffe" stroke="none" d="
"/>

<path fill="#fffffe" stroke="none" d="
"/>

<path fill="#fffffe" stroke="none" d="
"/>

<path fill="#fffffe" stroke="none" d="
"/>

<path fill="#fffffe" stroke="none" d="
"/>

<path fill="#fffffe" stroke="none" d="
"/>

<path fill="#fffffe" stroke="none" d="
"/>

<path fill="#fffffe" stroke="none" d="
"/>

<path fill="#fffffe" stroke="none" d="
"/>

<path fill="#fffffe" stroke="none" d="
"/>

<path fill="#fffffe" stroke="none" d="
"/>

<path fill="#fffffe" stroke="none" d="
"/>

<path fill="#fffffe" stroke="none" d="
"/>

<path fill="#fffffe" stroke="none" d="
"/>

<path fill="#fffffe" stroke="none" d="
"/>

<path fill="#fffffe" stroke="none" d="
"/>

<path fill="#fffffe" stroke="none" d="
"/>

<path fill="#fffffe" stroke="none" d="
"/>

<path fill="#fffffe" stroke="none" d="
"/>

<path fill="#fffffe" stroke="none" d="
"/>

<path fill="#fffffe" stroke="none" d="
"/>

<path fill="#fffffe" stroke="none" d="
"/>

<path fill="#fffffe" stroke="none" d="
"/>

<path fill="#fffffe" stroke="none" d="
"/>

<path fill="#fffffe" stroke="none" d="
"/>

<path fill="#fffffe" stroke="none" d="
"/>

<path fill="#fffffe" stroke="none" d="
M0 99

L0 10

L158 10

L315 10

L315 99

L315 188

L158 188

L0 188

L0 99

Z

M88 159

C96 158 105 153 111 148

L116 144

L117 145

L118 147

L118 145

L118 144

L119 144

L120 144

L120 152

L120 160

L124 160

L128 160

L128 150

C128 140 128 140 123 131

C121 127 119 123 119 123

C118 123 117 126 115 129

C112 136 104 144 97 148

C91 150 89 151 80 151

C71 151 69 150 64 148

C55 144 50 138 45 129

C42 122 42 121 42 113

C42 100 44 94 53 85

C62 76 68 74 81 74

C88 74 90 74 96 77

C107 82 111 86 122 107

C139 138 143 144 151 150

C166 161 184 163 201 155

C208 152 217 143 221 137

C224 132 224 132 222 128

C221 126 220 124 219 124

L218 123

L216 129

C212 137 205 144 197 147

C191 150 190 151 180 151

C170 151 169 150 163 147

C154 142 149 136 136 114

C130 103 123 90 120 87

C115 78 106 71 97 68

C90 65 76 64 69 66

C57 69 47 77 40 87

C30 102 31 123 41 139

C49 151 64 159 79 160

C80 160 84 160 88 159

Z

M260 155

C261 152 295 64 295 63

L295 62

L291 62

L286 62

L271 103

C261 128 255 145 254 145

L253 145

L240 122

C228 100 228 100 228 69

L228 39

L226 39

C225 38 223 38 222 39

L220 39

L220 61

L220 82

L219 82

C218 82 216 80 213 78

C210 75 204 71 200 69

C193 66 192 66 183 65

C174 65 171 65 166 67

C154 71 144 79 139 89

C137 93 137 93 139 97

C140 99 142 101 142 101

C142 101 144 98 145 95

C154 76 178 68 197 77

C208 82 213 88 237 134

C250 158 249 157 255 157

C258 157 259 157 260 155

Z

"/>

<path fill="#ffffff" stroke="none" d="
M0 5

L0 0

L158 0

L315 0

L315 5

L315 10

L158 10

L0 10

L0 5

Z

"/>

</svg>

